# xmcd CD database file
#
# Track frame offsets:
#	150
#	18829
#	33825
#	50467
#	64451
#	82040
#	98079
#	114728
#	130502
#	146663
#	163765
#
# Disc length: 2761 seconds
#
# Revision: 3
# Processed by: cddbd v1.4PL0 Copyright (c) Steve Scherf et al.
# Submitted via: CDex 1.40PlusFr
#
DISCID=900ac70b
DTITLE=Papa Roach - Infest
DYEAR=2000
DGENRE=Metal
TTITLE0=Infest
TTITLE1=Last Resort
TTITLE2=Broken Home
TTITLE3=Dead Cell
TTITLE4=Between Angels and Insects
TTITLE5=Blood Brothers
TTITLE6=Revenge
TTITLE7=Snakes
TTITLE8=Never Enough
TTITLE9=Binge
TTITLE10=Throw Away
EXTD=YEAR: 2000 ID3G: 9
EXTT0=
EXTT1=
EXTT2=
EXTT3=
EXTT4=
EXTT5=
EXTT6=
EXTT7=
EXTT8=
EXTT9=
EXTT10=
PLAYORDER=
